<svg width="32" height="77" viewBox="0 0 32 77" fill="none" xmlns="http://www.w3.org/2000/svg">
<path d="M28.6574 45.567C30.0079 44.1537 30.9936 42.4365 31.5299 40.5623C32.0662 38.6882 32.1372 36.7128 31.7368 34.8054C31.5743 34.041 31.1939 33.339 30.6411 32.7831C30.0882 32.2271 29.3861 31.8408 28.6184 31.6699C29.9861 30.259 30.9854 28.5372 31.529 26.6546C32.0725 24.772 32.1439 22.7859 31.7368 20.8696C31.5716 20.0896 31.1815 19.3741 30.6139 18.8104C30.0464 18.2468 29.3259 17.8593 28.5404 17.6953C25.8546 17.144 23.0608 17.484 20.5885 18.6631C22.6239 16.4811 23.7676 13.6242 23.7966 10.65C23.778 8.67015 23.2664 6.72563 22.3074 4.98977C21.3484 3.25392 19.9718 1.78068 18.3004 0.701379C17.6352 0.251094 16.8504 0.00704152 16.0455 0.000150082C15.2405 -0.00674136 14.4516 0.223839 13.7787 0.662668C12.0932 1.74268 10.7024 3.21948 9.72992 4.96183C8.75748 6.70419 8.23351 8.65813 8.20459 10.65C8.22654 13.6307 9.38221 16.493 11.4399 18.6631C8.97244 17.4679 6.17311 17.1272 3.48802 17.6953C2.6998 17.8533 1.97604 18.2388 1.40745 18.8034C0.838859 19.3681 0.450716 20.0868 0.291664 20.8696C-0.120448 22.7827 -0.0553043 24.7669 0.481417 26.6493C1.01814 28.5318 2.01016 30.2553 3.37108 31.6699C2.60801 31.842 1.91132 32.2296 1.36496 32.7859C0.8186 33.3422 0.445866 34.0436 0.291664 34.8054C-0.115419 36.7097 -0.0514448 38.6836 0.478098 40.5579C1.00764 42.4322 1.98696 44.151 3.3321 45.567C2.57739 45.7614 1.89257 46.1617 1.35521 46.7227C0.81785 47.2837 0.449423 47.983 0.291664 48.7413C-0.103088 50.4727 -0.0970579 52.2706 0.309297 53.9994C0.715652 55.7282 1.51174 57.3429 2.63759 58.7218C3.76344 60.1008 5.18971 61.208 6.80895 61.9602C8.4282 62.7124 10.1982 63.0899 11.9856 63.0642C12.6793 63.0748 13.3721 63.0099 14.0516 62.8706V75.0645C14.0516 75.5778 14.2569 76.0701 14.6224 76.4331C14.9879 76.7961 15.4837 77 16.0006 77C16.5175 77 17.0132 76.7961 17.3787 76.4331C17.7442 76.0701 17.9496 75.5778 17.9496 75.0645V62.8706C18.6419 63.0117 19.3478 63.0766 20.0545 63.0642C21.6207 63.0769 23.1741 62.7826 24.6256 62.198C26.0771 61.6134 27.3982 60.7502 28.5131 59.6577C29.913 58.2414 30.9403 56.5048 31.5045 54.601C32.0687 52.6972 32.1525 50.6848 31.7485 48.7413C31.5816 47.9789 31.2039 47.278 30.6579 46.7172C30.1118 46.1564 29.419 45.7581 28.6574 45.567ZM13.728 59.0383C12.4004 59.3213 11.0231 59.2752 9.7177 58.9038C8.41234 58.5325 7.21923 57.8474 6.2439 56.9092C5.27639 55.9256 4.58409 54.7084 4.23543 53.3777C3.88678 52.047 3.89384 50.649 4.25593 49.3219C4.86051 49.2144 5.4738 49.1625 6.08798 49.1671C7.13682 49.1472 8.17877 49.3394 9.15044 49.732C10.1221 50.1247 11.0032 50.7095 11.7401 51.451C12.7177 52.428 13.4168 53.645 13.766 54.978C14.1153 56.3109 14.1022 57.712 13.728 59.0383ZM13.728 45.1025C12.4005 45.3883 11.0224 45.3435 9.71654 44.972C8.41069 44.6005 7.21769 43.9139 6.2439 42.9734C5.2767 41.9977 4.58412 40.7872 4.23529 39.4626C3.88645 38.1381 3.89357 36.7458 4.25593 35.4248C4.85632 35.286 5.47162 35.221 6.08798 35.2313C7.13682 35.2114 8.17877 35.4036 9.15044 35.7962C10.1221 36.1888 11.0032 36.7737 11.7401 37.5152C12.7177 38.4921 13.4168 39.7092 13.766 41.0421C14.1153 42.3751 14.1022 43.7762 13.728 45.1025ZM13.728 31.1666C12.4005 31.4525 11.0224 31.4077 9.71654 31.0362C8.41069 30.6647 7.21769 29.9781 6.2439 29.0376C5.2767 28.0619 4.58412 26.8514 4.23529 25.5268C3.88645 24.2022 3.89357 22.81 4.25593 21.489C4.8594 21.3692 5.47263 21.3044 6.08798 21.2954C7.13682 21.2755 8.17877 21.4677 9.15044 21.8604C10.1221 22.253 11.0032 22.8379 11.7401 23.5794C12.7177 24.5563 13.4168 25.7734 13.766 27.1063C14.1153 28.4393 14.1022 29.8404 13.728 31.1666ZM15.9109 17.4244C14.7579 16.6999 13.8056 15.7006 13.1404 14.5175C12.4753 13.3344 12.1186 12.0049 12.1026 10.65C12.1147 9.27084 12.4967 7.9198 13.2093 6.73593C13.9218 5.55206 14.9391 4.57812 16.1565 3.91436C17.2917 4.64298 18.2276 5.63944 18.8806 6.81478C19.5336 7.99011 19.8833 9.30774 19.8986 10.65C19.8806 12.0253 19.5038 13.3724 18.8049 14.5597C18.1059 15.7471 17.1088 16.7341 15.9109 17.4244ZM25.7728 56.9092C24.7759 57.86 23.5499 58.5408 22.2123 58.8865C20.8746 59.2322 19.4699 59.2311 18.1328 58.8834C18.0123 58.3102 17.9471 57.7269 17.9379 57.1415V57.064C17.9227 54.9524 18.7495 52.9206 20.2377 51.4123C21.6937 49.9926 23.6544 49.1999 25.6949 49.2058C26.4441 49.2027 27.1906 49.2938 27.9167 49.4768C28.1949 50.7954 28.145 52.1614 27.7714 53.4566C27.3978 54.7517 26.7118 55.9368 25.7728 56.9092ZM25.7728 42.9734C24.7812 43.9322 23.5554 44.6184 22.2159 44.9646C20.8764 45.3107 19.4693 45.3049 18.1328 44.9476C18.0123 44.3744 17.9471 43.7911 17.9379 43.2056V43.1282C17.9267 42.0878 18.1244 41.0557 18.5192 40.0919C18.9141 39.1282 19.4983 38.2523 20.2377 37.5152C20.9513 36.7994 21.8016 36.2322 22.7386 35.8467C23.6756 35.4612 24.6806 35.2651 25.6949 35.27C26.4428 35.2861 27.1871 35.3769 27.9167 35.5409C28.1949 36.8595 28.145 38.2256 27.7714 39.5208C27.3978 40.8159 26.7118 42.001 25.7728 42.9734ZM25.7728 29.0376C24.7862 30.004 23.5606 30.6953 22.2193 31.0419C20.8781 31.3885 19.4687 31.3781 18.1328 31.0118C18.0123 30.4386 17.9471 29.8553 17.9379 29.2698V29.1924C17.9267 28.152 18.1244 27.1198 18.5192 26.1561C18.9141 25.1924 19.4983 24.3164 20.2377 23.5794C20.9589 22.8656 21.8169 22.3026 22.7609 21.9236C23.7049 21.5446 24.7158 21.3573 25.7339 21.3728C26.47 21.3722 27.2034 21.4632 27.9167 21.6438C28.195 22.9564 28.1451 24.3167 27.7714 25.6057C27.3976 26.8946 26.7114 28.073 25.7728 29.0376Z" fill="#EB7F38"/>
</svg>
